<svg width="1609" height="494" viewBox="0 0 1609 494" fill="none" xmlns="http://www.w3.org/2000/svg">
<path d="M707.678 437.95C694.01 437.95 682.38 435.151 672.79 429.554C663.275 423.956 656.026 416.468 651.042 407.088C646.133 397.709 643.679 387.384 643.679 376.113C643.679 364.767 646.133 354.442 651.042 345.138C656.026 335.759 663.275 328.27 672.79 322.673C682.38 317.075 694.01 314.276 707.678 314.276C721.346 314.276 732.899 317.075 742.339 322.673C751.853 328.27 759.103 335.759 764.087 345.138C769.071 354.442 771.563 364.767 771.563 376.113C771.563 387.384 769.071 397.709 764.087 407.088C759.103 416.468 751.853 423.956 742.339 429.554C732.899 435.151 721.346 437.95 707.678 437.95ZM707.678 426.377C713.115 426.377 717.532 424.788 720.93 421.611C724.404 418.359 727.047 414.161 728.859 409.017C730.747 403.873 732.031 398.427 732.711 392.679C733.466 386.854 733.843 381.332 733.843 376.113C733.843 370.97 733.503 365.486 732.824 359.661C732.144 353.837 730.86 348.391 728.973 343.323C727.16 338.179 724.517 334.019 721.044 330.842C717.645 327.589 713.19 325.963 707.678 325.963C702.165 325.963 697.672 327.589 694.198 330.842C690.725 334.019 688.044 338.179 686.156 343.323C684.344 348.391 683.098 353.837 682.418 359.661C681.738 365.486 681.399 370.97 681.399 376.113C681.399 381.332 681.738 386.854 682.418 392.679C683.098 398.427 684.344 403.873 686.156 409.017C688.044 414.161 690.725 418.359 694.198 421.611C697.672 424.788 702.165 426.377 707.678 426.377Z" fill="white"/>
<path d="M865.746 435.567V427.625L881.491 423.2V361.703C881.491 352.475 879.64 345.667 875.94 341.28C872.24 336.817 866.69 334.586 859.289 334.586C849.926 334.586 842.45 338.595 836.862 346.613V332.43C842.223 326.984 848.529 322.597 855.778 319.269C863.103 315.94 871.258 314.276 880.245 314.276C904.258 314.276 916.265 327.438 916.265 353.761V423.2L933.142 427.625V435.567H865.746ZM788.042 435.567V427.625L804.919 423.2V336.742L787.815 330.388V325.282L833.577 314.276H838.561V333.451L839.467 334.586V423.2L855.325 427.625V435.567H788.042Z" fill="white"/>
<path d="M1034.1 435.567V427.284L1060.95 422.292V275.019H1024.47C1019.64 281.146 1015.53 287.689 1012.13 294.647C1008.81 301.606 1006.05 308.149 1003.86 314.276H995.137L1003.29 262.765H1156.32L1164.59 314.276H1155.87C1153.6 308.149 1150.92 301.606 1147.83 294.647C1144.73 287.689 1140.77 281.146 1135.93 275.019H1099.35V422.292L1125.97 427.284V435.567H1034.1Z" fill="white"/>
<path d="M1209.33 494C1202.01 494 1195.74 492.374 1190.53 489.121C1185.4 485.869 1182.83 481.028 1182.83 474.598C1182.83 470.286 1184.26 466.845 1187.13 464.273C1190 461.701 1193.4 460.415 1197.33 460.415C1200.65 460.415 1203.59 461.361 1206.16 463.252C1208.8 465.143 1210.69 468.017 1211.83 471.875C1212.88 475.43 1213.9 477.737 1214.88 478.796C1215.87 479.931 1217.38 480.498 1219.41 480.498C1222.06 480.498 1224.66 479.174 1227.23 476.527C1229.8 473.879 1231.91 470.249 1233.57 465.634L1242.41 441.808L1194.61 333.451C1193.32 330.577 1191.4 328.497 1188.83 327.211C1186.26 325.85 1182.19 324.904 1176.6 324.374V316.546H1249.77V324.374C1245.01 324.753 1241.35 325.358 1238.78 326.19C1236.29 327.022 1234.74 328.194 1234.14 329.707C1233.54 331.22 1233.72 333.187 1234.71 335.607L1260.76 397.104H1261.89L1284.43 342.188C1287 336.364 1287 332.052 1284.43 329.253C1281.94 326.455 1276.65 324.828 1268.57 324.374V316.546H1322.49V324.374C1316.98 325.433 1312.75 326.606 1309.8 327.892C1306.86 329.178 1304.56 330.955 1302.9 333.225C1301.23 335.418 1299.57 338.482 1297.91 342.415L1246.26 467.223C1244.15 472.14 1241.88 476.3 1239.46 479.704C1237.05 483.108 1234.4 485.906 1231.53 488.1C1226.02 492.033 1218.62 494 1209.33 494Z" fill="white"/>
<path d="M1333.32 491.731V486.398L1352.68 480.498V336.515L1333.77 330.388V325.055L1380.21 314.276H1385.42V330.955H1386.55C1390.71 325.812 1396.14 321.765 1402.86 318.815C1409.58 315.789 1416.61 314.276 1423.93 314.276C1433.75 314.276 1442.43 316.81 1449.98 321.878C1457.54 326.871 1463.46 333.83 1467.77 342.755C1472.07 351.605 1474.22 361.779 1474.22 373.277C1474.22 386.287 1471.51 397.671 1466.07 407.429C1460.63 417.111 1453.01 424.637 1443.19 430.007C1433.45 435.302 1421.97 437.95 1408.75 437.95C1404.68 437.95 1400.94 437.647 1397.54 437.042C1394.14 436.437 1390.82 435.567 1387.57 434.432V480.498L1417.36 486.398V491.731H1333.32ZM1409.21 425.809C1414.64 425.809 1419.36 423.767 1423.37 419.682C1427.44 415.522 1430.62 409.811 1432.88 402.55C1435.15 395.213 1436.28 386.741 1436.28 377.134C1436.28 363.216 1433.9 352.21 1429.14 344.117C1424.39 335.948 1417.97 331.863 1409.89 331.863C1405.28 331.863 1400.83 333.111 1396.52 335.607C1392.29 338.103 1389.31 341.28 1387.57 345.138V400.961C1387.57 407.845 1389.69 413.707 1393.92 418.548C1398.14 423.389 1403.24 425.809 1409.21 425.809Z" fill="white"/>
<path d="M1550.1 437.95C1537.71 437.95 1526.88 435.454 1517.59 430.461C1508.38 425.393 1501.2 418.359 1496.07 409.357C1491.01 400.28 1488.48 389.804 1488.48 377.928C1488.48 365.296 1491.31 354.215 1496.97 344.684C1502.64 335.153 1510.49 327.703 1520.54 322.332C1530.65 316.962 1542.36 314.276 1555.65 314.276C1572.79 314.276 1585.82 318.928 1594.73 328.232C1603.71 337.46 1608.47 351.076 1609 369.078L1607.3 370.553H1509.43V360.342L1571.85 358.073C1572.45 356.484 1572.75 353.648 1572.75 349.563C1572.75 333.678 1566.11 325.736 1552.82 325.736C1544.13 325.736 1537.45 329.518 1532.77 337.082C1528.16 344.646 1525.86 355.387 1525.86 369.305C1525.86 399.562 1537.53 414.69 1560.86 414.69C1577.02 414.69 1589.74 409.168 1599.03 398.125L1605.26 403.457C1601.26 414.35 1594.39 422.822 1584.65 428.873C1574.98 434.924 1563.46 437.95 1550.1 437.95Z" fill="white"/>
<path d="M209.044 276.804L140.496 57.9065H139.601L57.9882 254.036L87.6983 260.848L82.6869 273.039H0L5.19031 260.848L36.8691 254.036L133.158 19.1827L103.448 12.1909L108.638 0H178.618L238.038 190.213H239.649L310.702 19.1827L281.171 12.1909L286.183 0H370.122L364.932 12.1909L333.074 19.1827L224.436 276.804H209.044Z" fill="white"/>
<path d="M372.195 276.804C352.03 276.804 336.22 271.366 324.766 260.49C313.431 249.494 307.763 233.957 307.763 213.878C307.763 200.253 310.03 186.986 314.564 174.078C319.218 161.17 325.661 149.159 333.894 138.043C342.127 126.809 351.672 116.948 362.53 108.463C373.507 99.9769 385.32 93.3436 397.967 88.5629C410.734 83.7822 423.799 81.3918 437.163 81.3918C457.328 81.3918 473.077 86.8897 484.413 97.8853C495.748 108.881 501.415 124.478 501.415 144.677C501.415 158.063 499.089 171.21 494.435 184.118C489.901 197.026 483.518 209.097 475.285 220.332C467.052 231.447 457.507 241.247 446.649 249.733C435.791 258.219 424.038 264.852 411.39 269.633C398.743 274.414 385.677 276.804 372.195 276.804ZM370.763 259.952C376.49 259.952 382.933 256.904 390.092 250.809C397.371 244.713 404.649 236.646 411.927 226.606C419.206 216.447 425.887 205.272 431.973 193.081C438.058 180.891 442.95 168.64 446.649 156.33C450.467 144.019 452.376 132.665 452.376 122.267C452.376 114.857 451.242 109.001 448.975 104.698C446.708 100.395 443.188 98.2439 438.416 98.2439C432.688 98.2439 426.186 101.292 418.907 107.387C411.748 113.482 404.53 121.61 397.251 131.769C389.973 141.928 383.291 153.103 377.206 165.294C371.121 177.365 366.169 189.615 362.351 202.045C358.652 214.356 356.803 225.65 356.803 235.929C356.803 243.339 357.936 249.195 360.203 253.498C362.59 257.801 366.109 259.952 370.763 259.952Z" fill="white"/>
<path d="M539.926 276.804C520 276.804 510.037 268.736 510.037 252.601C510.037 249.375 510.395 245.849 511.111 242.024C511.946 238.08 513.258 233.538 515.048 228.399C516.957 223.26 519.403 217.224 522.386 210.292L569.815 100.395H540.642L546.906 84.9774H576.616L598.988 32.8077L656.797 27.4294L631.741 84.9774H665.388L659.124 100.395H625.118L564.983 240.052C564.147 241.964 563.431 243.578 562.835 244.893C562.358 246.207 561.94 247.343 561.582 248.299C561.343 249.135 561.164 249.912 561.045 250.629C560.926 251.227 560.866 251.825 560.866 252.422C560.866 255.291 562.298 256.725 565.162 256.725C569.338 256.725 575.005 253.976 582.164 248.478C589.323 242.861 598.391 234.076 609.369 222.124L619.212 228.041C604.775 245.012 591.232 257.382 578.585 265.151C565.937 272.92 553.051 276.804 539.926 276.804Z" fill="white"/>
<path d="M706.723 276.804C690.257 276.804 676.834 271.605 666.454 261.207C656.192 250.689 651.062 237.064 651.062 220.332C651.062 206.109 653.567 192.245 658.579 178.739C663.709 165.114 670.749 152.445 679.698 140.733C688.647 129.02 699.027 118.741 710.84 109.897C722.652 100.933 735.359 93.9412 748.961 88.9215C762.683 83.9017 776.762 81.3918 791.2 81.3918C806.115 81.3918 817.748 84.2005 826.1 89.8179C834.452 95.4352 838.628 103.204 838.628 113.124C838.628 123.163 834.035 132.426 824.847 140.912C815.66 149.278 801.879 156.808 783.504 163.501C765.248 170.194 742.459 175.99 715.135 180.891C710.362 190.811 706.663 200.372 704.038 209.575C701.414 218.778 700.101 227.084 700.101 234.495C700.101 251.466 706.842 259.952 720.325 259.952C726.888 259.952 733.629 258.398 740.55 255.291C747.589 252.183 755.106 247.402 763.101 240.948C771.095 234.375 779.865 225.889 789.41 215.491L798.359 222.483C783.086 240.889 767.993 254.574 753.078 263.537C738.163 272.382 722.712 276.804 706.723 276.804ZM722.115 167.624C734.882 164.756 746.873 160.094 758.089 153.641C769.305 147.067 778.373 139.717 785.294 131.589C792.333 123.343 795.853 115.395 795.853 107.746C795.853 101.292 792.93 98.0646 787.083 98.0646C781.356 98.0646 775.211 100.754 768.649 106.132C762.086 111.51 755.285 118.861 748.246 128.183C741.325 137.506 734.226 148.023 726.947 159.736L722.115 167.624Z" fill="white"/>
<path d="M887.243 276.804C874.715 276.804 863.141 275.131 852.521 271.784C842.022 268.318 833.61 263.717 827.286 257.98C820.843 252.123 817.621 245.669 817.621 238.618C817.621 233.001 819.65 228.399 823.706 224.814C827.763 221.228 832.894 219.435 839.098 219.435C844.826 219.435 849.36 221.168 852.7 224.634C856.041 228.1 858.249 233.18 859.323 239.873C860.396 247.522 863.021 252.841 867.198 255.828C871.493 258.816 877.28 260.31 884.558 260.31C895.416 260.31 903.112 257.98 907.646 253.319C912.18 248.657 914.447 242.383 914.447 234.495C914.447 230.072 913.791 225.77 912.478 221.587C911.166 217.403 908.66 212.563 904.961 207.065C901.382 201.448 895.953 194.396 888.675 185.91C879.964 175.632 873.76 166.608 870.061 158.84C866.362 151.071 864.513 143.601 864.513 136.43C864.513 125.673 867.794 116.172 874.357 107.925C880.919 99.6781 889.629 93.2241 900.487 88.5629C911.464 83.7822 923.515 81.3918 936.64 81.3918C947.856 81.3918 958.475 83.1248 968.498 86.5909C978.521 89.9374 986.694 94.5388 993.018 100.395C999.341 106.132 1002.5 112.526 1002.5 119.578C1002.5 125.195 1000.48 129.856 996.418 133.561C992.481 137.147 987.35 138.94 981.026 138.94C969.691 138.94 962.89 132.008 960.623 118.144C959.549 110.494 957.103 105.236 953.285 102.367C949.586 99.4988 945.052 98.0646 939.683 98.0646C932.285 98.0646 926.14 100.216 921.248 104.519C916.476 108.821 914.089 114.558 914.089 121.729C914.089 127.466 915.819 133.801 919.28 140.733C922.859 147.545 928.288 155.433 935.566 164.397C946.544 178.142 954.061 189.137 958.117 197.384C962.174 205.511 964.203 213.28 964.203 220.69C964.203 231.686 960.862 241.427 954.18 249.912C947.498 258.279 938.311 264.852 926.618 269.633C915.044 274.414 901.919 276.804 887.243 276.804Z" fill="white"/>
</svg>
